<?xml version="1.0" encoding="UTF-8" standalone="no"?>
<svg
   xmlns:dc="http://purl.org/dc/elements/1.1/"
   xmlns:cc="http://creativecommons.org/ns#"
   xmlns:rdf="http://www.w3.org/1999/02/22-rdf-syntax-ns#"
   xmlns:svg="http://www.w3.org/2000/svg"
   xmlns="http://www.w3.org/2000/svg"
   xmlns:sodipodi="http://sodipodi.sourceforge.net/DTD/sodipodi-0.dtd"
   xmlns:inkscape="http://www.inkscape.org/namespaces/inkscape"
   version="1.1"
   id="Layer_1"
   x="0px"
   y="0px"
   width="1200px"
   height="1200px"
   viewBox="0 0 1200 1200"
   style="enable-background:new 0 0 1200 1200;"
   xml:space="preserve"
   sodipodi:docname="women.svg"
   inkscape:version="1.0 (4035a4f, 2020-05-01)"><metadata
   id="metadata1023"><rdf:RDF><cc:Work
       rdf:about=""><dc:format>image/svg+xml</dc:format><dc:type
         rdf:resource="http://purl.org/dc/dcmitype/StillImage" /><dc:title /></cc:Work></rdf:RDF></metadata><defs
   id="defs1021" /><sodipodi:namedview
   inkscape:document-rotation="0"
   pagecolor="#ffffff"
   bordercolor="#666666"
   borderopacity="1"
   objecttolerance="10"
   gridtolerance="10"
   guidetolerance="10"
   inkscape:pageopacity="0"
   inkscape:pageshadow="2"
   inkscape:window-width="1248"
   inkscape:window-height="794"
   id="namedview1019"
   showgrid="false"
   inkscape:zoom="0.54196136"
   inkscape:cx="764.83269"
   inkscape:cy="637.81416"
   inkscape:window-x="469"
   inkscape:window-y="23"
   inkscape:window-maximized="0"
   inkscape:current-layer="g7308" />
<g
   id="illustration_1_">
	
	
	
	
	
	
	
	
	
	
	
	
	
	
	
	
	
	
	
	
	
	
	
	
	
	
	
	
	
	<g
   id="g7308"><path
     id="path742"
     d="m 660.62248,924.17865 -7.82922,50.71461 c -7.44545,48.22864 45.02737,33.60264 42.67752,-12.13709 l -1.9573,-38.09887 z"
     style="fill:#000000"
     sodipodi:nodetypes="csscc" /><path
     id="path750"
     d="m 556.34383,924.17865 -2.93596,36.03483 c -3.96288,48.63882 45.69338,61.77302 40.72022,16.24382 L 588.25617,922.7 Z"
     style="fill:#000000"
     sodipodi:nodetypes="csscc" /><path
     sodipodi:nodetypes="ccccccccccccccccccccc"
     id="path752"
     d="m 540.04211,563.08771 c -0.36263,32.61732 6.74633,77.6873 10.1195,124.00255 l -6.97832,75.94448 6.65209,84.28871 6.50845,76.8552 31.91234,-1.47865 9.74859,-76.21208 9.54802,-76.08236 -2.02361,-72.26053 L 617.3841,586.9 c 9.18358,-8.85236 14.06141,0.42154 14.06141,0.42154 l 14.1669,110.75395 0.77796,71.53414 6.66654,80.84575 7.56557,73.72327 32.891,0.47865 6.08988,-73.20416 8.37072,-81.84351 c -1.68956,-28.39011 -6.81457,-55.06249 -10.22185,-82.59373 1.54085,-41.61317 11.86732,-79.72584 9.67237,-123.82954 z"
     style="fill:#000000" /><g
     style="fill:#000000"
     id="g780">
		<path
   id="path760"
   d="m 675,319.9 c -27.8,-13.5 -68.3,-15.8 -101.3,-0.1 -5.1,-10.8 -14,-45.8 -13.1,-80.4 1.1,-40.5 15.5,-80.5 65.3,-80.4 47.8,0 61.8,39.1 62.5,79.7 0,33.1 -13.4,81.2 -13.4,81.2 z"
   style="fill:#000000" />
		
		
		<path
   id="jawMid_2_"
   style="fill:#000000"
   d="m 626.3,284.10001 a 0.80000001,0.80000001 0 0 1 -0.8,0.8 0.80000001,0.80000001 0 0 1 -0.8,-0.8 0.80000001,0.80000001 0 0 1 0.8,-0.8 0.80000001,0.80000001 0 0 1 0.8,0.8" />
		<path
   id="rightJaw7_2_"
   style="fill:#000000"
   d="m 615.39998,282.10001 a 0.80000001,0.80000001 0 0 1 -0.8,0.8 0.80000001,0.80000001 0 0 1 -0.8,-0.8 0.80000001,0.80000001 0 0 1 0.8,-0.8 0.80000001,0.80000001 0 0 1 0.8,0.8" />
		<path
   id="leftJaw7_2_"
   style="fill:#000000"
   d="m 637.20002,282.10001 a 0.80000001,0.80000001 0 0 1 -0.8,0.8 0.80000001,0.80000001 0 0 1 -0.8,-0.8 0.80000001,0.80000001 0 0 1 0.8,-0.8 0.80000001,0.80000001 0 0 1 0.8,0.8" />
		<path
   id="rightJaw3_2_"
   style="fill:#000000"
   d="m 581.09999,226.60001 a 0.80000001,0.80000001 0 0 1 -0.8,0.8 0.80000001,0.80000001 0 0 1 -0.8,-0.8 0.80000001,0.80000001 0 0 1 0.8,-0.8 0.80000001,0.80000001 0 0 1 0.8,0.8" />
		<path
   id="rightJaw2_2_"
   style="fill:#000000"
   d="m 581.09999,217.10001 a 0.80000001,0.80000001 0 0 1 -0.8,0.8 0.80000001,0.80000001 0 0 1 -0.8,-0.8 0.80000001,0.80000001 0 0 1 0.8,-0.8 0.80000001,0.80000001 0 0 1 0.8,0.8" />
		<path
   id="leftJaw3_2_"
   style="fill:#000000"
   d="m 669.3,227 a 0.80000001,0.80000001 0 0 1 -0.8,0.8 0.80000001,0.80000001 0 0 1 -0.8,-0.8 0.80000001,0.80000001 0 0 1 0.8,-0.8 0.80000001,0.80000001 0 0 1 0.8,0.8" />
		<path
   id="leftJaw2_2_"
   style="fill:#000000"
   d="m 669.3,217.39999 a 0.80000001,0.80000001 0 0 1 -0.8,0.8 0.80000001,0.80000001 0 0 1 -0.8,-0.8 0.80000001,0.80000001 0 0 1 0.8,-0.8 0.80000001,0.80000001 0 0 1 0.8,0.8" />
		<path
   id="topMid_2_"
   style="fill:#000000"
   d="m 625.50001,166 a 0.80000001,0.80000001 0 0 1 -0.8,0.8 0.80000001,0.80000001 0 0 1 -0.8,-0.8 0.80000001,0.80000001 0 0 1 0.8,-0.8 0.80000001,0.80000001 0 0 1 0.8,0.8" />
		<path
   id="leftTop0_2_"
   style="fill:#000000"
   d="m 643.20002,168.5 a 0.80000001,0.80000001 0 0 1 -0.8,0.8 0.80000001,0.80000001 0 0 1 -0.8,-0.8 0.80000001,0.80000001 0 0 1 0.8,-0.8 0.80000001,0.80000001 0 0 1 0.8,0.8" />
		<path
   id="rightTop0_2_"
   style="fill:#000000"
   d="m 607.59999,168.5 a 0.80000001,0.80000001 0 0 1 -0.8,0.8 0.80000001,0.80000001 0 0 1 -0.8,-0.8 0.80000001,0.80000001 0 0 1 0.8,-0.8 0.80000001,0.80000001 0 0 1 0.8,0.8" />
		
		
	</g><path
     sodipodi:nodetypes="ccccscsccscc"
     id="path782"
     d="m 540.04211,563.08771 c -0.56174,-34.08938 18.24987,-41.73155 18.16061,-69.37748 C 551.36118,455.6448 531.1716,398.7658 543.13971,374.85172 555.73971,351.25172 564.6,357.5 581.4,346.6 c 5.73449,-3.70596 8.83637,-4.15164 14.83441,-6.37218 9.37757,-3.47168 18.99018,-9.0498 28.56559,-8.92782 9.67932,0.12409 19.39714,4.88771 28.86681,8.65986 5.79244,2.30736 11.09204,1.99664 16.63319,5.64014 16.5,10.9 15.6833,6.82881 28.1833,29.72881 14.09305,25.67185 -4.24084,71.02249 -12.90576,117.03133 -4.4311,23.52813 19.95295,34.61016 21.84706,70.82622 z"
     style="fill:#000000" /><path
     id="path788"
     d="M 616.2,277.5"
     style="fill:#f3af9d" /><path
     id="path790"
     d="m 614.2,265.7 h 20.9 c 0,0 4.3,61.7 5.7,85.2 -2.1,9.7 -9.1,11.3 -15.5,11.1 -8.2,-0.2 -15.9,-4.7 -17.1,-12.5 z"
     style="fill:#000000" /><path
     id="path792"
     d="m 614.2,265.7 h 20.9 c 1.9,19 -21.7,83.8 -26.9,83.8 z"
     style="fill:#000000" /><path
     id="path876"
     d="m 968.4,381.4 17,-6.8 c 0,0 6.1,5.5 13,11.2 6.9,5.7 -4.7,18.4 -15.3,10.6 -10.7,-7.8 -14.7,-15 -14.7,-15 z"
     style="fill:#000000"
     inkscape:label="path876" /><path
     sodipodi:nodetypes="ccccsc"
     id="path878"
     d="m 415.6,328.9 4.8,41.6 c 58.9,0.3 95.39037,4.07741 121.19037,24.07741 L 581.4,346.6 C 558.07347,335.13005 532.86878,337.90442 509.15484,335.62095 477.66695,332.58891 447.54317,326.96059 415.6,328.9 Z"
     style="fill:#000000" /><path
     sodipodi:nodetypes="ccccsc"
     id="path880"
     d="m 670.3,345.6 27.74186,53.2 c 27,-16.2 88.4711,-29.34518 136.25814,-25.3 l 1.8,-41.6 c -22.94099,0.6661 -46.98349,5.17538 -85.71523,7.8932 -22.04216,1.5467 -54.4425,-5.32782 -80.08477,5.8068 z"
     style="fill:#000000" /><path
     id="path882"
     d="m 415.6,328.9 c -24.4124,1.38183 -56.08026,6.99384 -86.15605,9.61935 -28.69005,2.50453 -55.93138,1.99314 -74.04395,4.58065 -37.1,5.3 -40.1,40.1 5.3,39.5 24.01296,-0.31735 49.25684,-4.59156 77.25573,-6.69888 24.9371,-1.87688 52.0596,-1.34983 82.44427,-5.40112 z"
     style="fill:#000000"
     inkscape:label="path882"
     sodipodi:nodetypes="csssscc" /><path
     id="path884"
     d="m 280.2,381.4 -17,-6.8 c 0,0 -6.1,5.5 -13,11.2 -6.9,5.7 4.7,18.4 15.3,10.6 10.7,-7.8 14.7,-15 14.7,-15 z"
     style="fill:#000000"
     inkscape:label="path884" /><path
     id="path886"
     d="m 834.3,373.5 c 30.55546,2.11811 57.78071,3.7457 83.29252,5.62257 26.55593,1.95369 52.25228,6.17141 75.40748,6.47743 45.4,0.6 42.4,-34.2 5.3,-39.5 -18.19118,-2.59874 -47.64718,-5.01911 -77.04525,-6.26995 C 884.49403,338.26594 860.41134,333.27611 836.1,331.9 Z"
     style="fill:#000000"
     sodipodi:nodetypes="csssscc" /></g>
</g>

<g
   inkscape:groupmode="layer"
   id="layer1"
   inkscape:label="Layer 1"
   style="display:none"><g
     id="skeleton_1_">
	<polygon
   style="fill:none;stroke:#000000;stroke-miterlimit:10"
   points="685.5,564.5 731.7,349.5 518.8,349.5 569.1,565.3 "
   id="polygon902" />
	<polyline
   style="fill:none;stroke:#000000;stroke-miterlimit:10"
   points="517.8,349.5 415.1,349.5 251.8,355.8  "
   id="polyline904" />
	<polyline
   style="fill:none;stroke:#000000;stroke-miterlimit:10"
   points="733.2,349.1 836.4,349.1 999.7,355.5  "
   id="polyline906" />
	<polyline
   style="fill:none;stroke:#000000;stroke-miterlimit:10"
   points="569.1,565.3 575.5,725.5 575.5,933.5  "
   id="polyline908" />
	<polyline
   style="fill:none;stroke:#000000;stroke-miterlimit:10"
   points="685.5,564.5 685.5,725.5 685.5,933.5  "
   id="polyline910" />
	<polyline
   style="fill:none;stroke:#000000;stroke-miterlimit:10"
   points="624.5,170 604.7,172.5 592.2,182 583.6,196.1    581.1,205.4 580.3,217.1 580.3,226.6 581.1,248.3 587.9,268.3 599.5,280.8 609.5,287.5 624.5,290.7 639.3,287.9 649.3,281.2    660.9,268.6 667.7,248.6 668.5,227 668.5,217.4 667.7,205.7 665.2,196.5 657,182 644.4,172.5 624.5,170  "
   id="polyline912" />
	<polyline
   style="fill:none;stroke:#000000;stroke-miterlimit:10"
   points="588.5,206.9 592.5,203.2 598.7,202.2 606,202.2    615.8,206.2  "
   id="polyline914" />
	<polygon
   style="fill:none;stroke:#000000;stroke-miterlimit:10"
   points="606.2,211.4 611.4,215.6 606.2,216.6 599.9,217.4 594.7,215.1 599.9,211.4 "
   id="polygon916" />
	<polyline
   style="fill:none;stroke:#000000;stroke-miterlimit:10"
   points="613,233.2 618.2,233.2 623.7,234 623.7,228.7    623.7,221.6 623.7,216.1 623.7,210.3  "
   id="polyline918" />
	<polyline
   style="fill:none;stroke:#000000;stroke-miterlimit:10"
   points="660,206.5 656,203.6 649.7,202.1 642.4,202.5    632.4,205.7  "
   id="polyline920" />
	<polygon
   style="fill:none;stroke:#000000;stroke-miterlimit:10"
   points="642.5,211.4 637.4,215.6 642.5,216.6 648.8,217.4 654.1,215.1 648.8,211.4 "
   id="polygon922" />
	<polyline
   style="fill:none;stroke:#000000;stroke-miterlimit:10"
   points="634.1,233.2 629.1,233.2 623.7,234  "
   id="polyline924" />
	<polygon
   style="fill:none;stroke:#000000;stroke-miterlimit:10"
   points="620.4,250.8 624.5,251.7 628.7,250.8 635.1,251.9 642,255.3 635.6,261.6 628.5,264.4 624.5,264.9 620.4,264.4 613.4,261.6 607,255.3 613.9,251.9 "
   id="polygon926" />
	<polyline
   style="fill:none;stroke:#000000;stroke-miterlimit:10"
   points="607,255.3 610.6,255.6 620.6,254.8 624.5,255.3    628.5,254.8 638.4,255.6 642,255.3  "
   id="polyline928" />
	<polyline
   style="fill:none;stroke:#000000;stroke-miterlimit:10"
   points="607,255.3 610.6,255.6 620.6,257.7 624.5,258.5    628.5,257.7 638.4,255.6 642,255.3  "
   id="polyline930" />
	<circle
   id="rightShoulder"
   cx="518.90002"
   cy="349.20001"
   r="8.1999998" />
	<circle
   id="rightElbow"
   cx="415.39999"
   cy="349.29999"
   r="8.1999998" />
	<circle
   id="rightWrist"
   cx="252"
   cy="355.70001"
   r="8.1999998" />
	<circle
   id="rightHip"
   cx="569.20001"
   cy="565"
   r="8.1999998" />
	<circle
   id="rightKnee"
   cx="575.59998"
   cy="725.20001"
   r="8.1999998" />
	<circle
   id="rightAnkle"
   cx="575.59998"
   cy="933.20001"
   r="8.1999998" />
	<circle
   id="leftElbow"
   cx="836.20001"
   cy="348.89999"
   r="8.1999998" />
	<circle
   id="leftWrist"
   cx="999.59998"
   cy="355.20001"
   r="8.1999998" />
	<circle
   id="leftHip"
   cx="685.59998"
   cy="564.20001"
   r="8.1999998" />
	<circle
   id="leftKnee"
   cx="685.59998"
   cy="725.20001"
   r="8.1999998" />
	<circle
   id="leftAnkle"
   cx="685.59998"
   cy="933.20001"
   r="8.1999998" />
	<circle
   id="rightEye0"
   cx="594.70001"
   cy="215.10001"
   r="0.80000001" />
	<circle
   id="rightBrow1"
   cx="592.5"
   cy="203.2"
   r="0.80000001" />
	<circle
   id="rightBrow4"
   cx="615.79999"
   cy="206.2"
   r="0.80000001" />
	<circle
   id="nose1"
   cx="623.70001"
   cy="216.10001"
   r="0.80000001" />
	<circle
   id="rightBrow3"
   cx="606"
   cy="202.2"
   r="0.80000001" />
	<circle
   id="rightEye1"
   cx="599.90002"
   cy="211.39999"
   r="0.80000001" />
	<circle
   id="rightBrow0"
   cx="588.5"
   cy="206.89999"
   r="0.80000001" />
	<circle
   id="rightBrow2"
   cx="598.70001"
   cy="202.2"
   r="0.80000001" />
	<circle
   id="rightEye5"
   cx="599.90002"
   cy="217.39999"
   r="0.80000001" />
	<circle
   id="rightEye2"
   cx="606.20001"
   cy="211.39999"
   r="0.80000001" />
	<circle
   id="rightEye3"
   cx="611.40002"
   cy="215.60001"
   r="0.80000001" />
	<circle
   id="nose0"
   cx="623.70001"
   cy="210.3"
   r="0.80000001" />
	<circle
   id="nose3"
   cx="623.70001"
   cy="228.7"
   r="0.80000001" />
	<circle
   id="rightNose0"
   cx="613"
   cy="233.2"
   r="0.80000001" />
	<circle
   id="rightMouthCorner"
   cx="607"
   cy="255.3"
   r="0.80000001" />
	<circle
   id="rightNose1"
   cx="618.20001"
   cy="233.2"
   r="0.80000001" />
	<circle
   id="rightUpperLipTop0"
   cx="613.90002"
   cy="251.89999"
   r="0.80000001" />
	<circle
   id="nose2"
   cx="623.70001"
   cy="221.60001"
   r="0.80000001" />
	<circle
   id="nose4"
   cx="623.70001"
   cy="234"
   r="0.80000001" />
	<circle
   id="upperLipTopMid"
   cx="624.5"
   cy="251.7"
   r="0.80000001" />
	<circle
   id="rightUpperLipTop1"
   cx="620.40002"
   cy="250.8"
   r="0.80000001" />
	<path
   id="rightMiddleLip"
   d="m 610.6,254.8 c 0.4,0 0.8,0.4 0.8,0.8 0,0.4 -0.4,0.8 -0.8,0.8 -0.4,0 -0.8,-0.4 -0.8,-0.8 0,-0.4 0.4,-0.8 0.8,-0.8 z" />
	<circle
   id="lowerLipBottomMid"
   cx="624.5"
   cy="264.89999"
   r="0.80000001" />
	<circle
   id="upperLipBottomMid"
   cx="624.5"
   cy="255.3"
   r="0.80000001" />
	<circle
   id="lowerLipTopMid"
   cx="624.5"
   cy="258.39999"
   r="0.80000001" />
	<circle
   id="rightUpperLipBottom1"
   cx="620.59998"
   cy="254.8"
   r="0.80000001" />
	<circle
   id="rightLowerLipTop0"
   cx="620.59998"
   cy="257.70001"
   r="0.80000001" />
	<circle
   id="rightLowerLipBottom1"
   cx="620.40002"
   cy="264.39999"
   r="0.80000001" />
	<circle
   id="rightLowerLipBottom0"
   cx="613.40002"
   cy="261.60001"
   r="0.80000001" />
	<circle
   id="rightEye4"
   cx="606.20001"
   cy="216.60001"
   r="0.80000001" />
	<circle
   id="jawMid"
   cx="624.5"
   cy="290.70001"
   r="0.80000001" />
	<circle
   id="rightJaw7"
   cx="609.5"
   cy="287.5"
   r="0.80000001" />
	<circle
   id="rightJaw6"
   cx="599.5"
   cy="280.79999"
   r="0.80000001" />
	<circle
   id="rightJaw5"
   cx="587.90002"
   cy="268.29999"
   r="0.80000001" />
	<circle
   id="rightJaw4"
   cx="581.09998"
   cy="248.3"
   r="0.80000001" />
	<circle
   id="rightJaw3"
   cx="580.29999"
   cy="226.60001"
   r="0.80000001" />
	<circle
   id="rightJaw2"
   cx="580.29999"
   cy="217.10001"
   r="0.80000001" />
	<circle
   id="rightJaw1"
   cx="581.09998"
   cy="205.39999"
   r="0.80000001" />
	<circle
   id="rightJaw0"
   cx="583.59998"
   cy="196.10001"
   r="0.80000001" />
	<circle
   id="topMid"
   cx="624.70001"
   cy="170"
   r="0.80000001" />
	<circle
   id="leftTop0"
   cx="644.40002"
   cy="172.5"
   r="0.80000001" />
	<circle
   id="leftTop1"
   cx="657"
   cy="182"
   r="0.80000001" />
	<circle
   id="leftEye0"
   cx="654.29999"
   cy="215.10001"
   r="0.80000001" />
	<circle
   id="leftBrow1"
   cx="656.20001"
   cy="203.60001"
   r="0.80000001" />
	<circle
   id="leftBrow4"
   cx="632.59998"
   cy="205.7"
   r="0.80000001" />
	<circle
   id="leftBrow3"
   cx="642.59998"
   cy="202.5"
   r="0.80000001" />
	<circle
   id="leftEye1"
   cx="649.09998"
   cy="211.39999"
   r="0.80000001" />
	<circle
   id="leftBrow0"
   cx="660.20001"
   cy="206.5"
   r="0.80000001" />
	<circle
   id="leftBrow2"
   cx="649.90002"
   cy="202.10001"
   r="0.80000001" />
	<circle
   id="leftEye5"
   cx="649.09998"
   cy="217.39999"
   r="0.80000001" />
	<circle
   id="leftEye2"
   cx="642.79999"
   cy="211.39999"
   r="0.80000001" />
	<circle
   id="leftEye3"
   cx="637.59998"
   cy="215.60001"
   r="0.80000001" />
	<circle
   id="leftNose0"
   cx="634.09998"
   cy="233.2"
   r="0.80000001" />
	<circle
   id="leftMouthCorner"
   cx="642"
   cy="255.3"
   r="0.80000001" />
	<circle
   id="leftNose1"
   cx="629.29999"
   cy="233.2"
   r="0.80000001" />
	<circle
   id="leftUpperLipTop0"
   cx="635.09998"
   cy="251.89999"
   r="0.80000001" />
	<circle
   id="leftUpperLipTop1"
   cx="628.70001"
   cy="250.8"
   r="0.80000001" />
	<path
   id="leftMiddleLip"
   d="m 638.4,254.8 c 0.4,0 0.8,0.4 0.8,0.8 0,0.4 -0.4,0.8 -0.8,0.8 -0.4,0 -0.8,-0.4 -0.8,-0.8 0,-0.4 0.4,-0.8 0.8,-0.8 z" />
	<circle
   id="leftUpperLipBottom1"
   cx="628.5"
   cy="254.8"
   r="0.80000001" />
	<circle
   id="leftLowerLipTop0"
   cx="628.5"
   cy="257.70001"
   r="0.80000001" />
	<circle
   id="leftLowerLipBottom1"
   cx="628.70001"
   cy="264.39999"
   r="0.80000001" />
	<circle
   id="leftLowerLipBottom0"
   cx="635.59998"
   cy="261.60001"
   r="0.80000001" />
	<circle
   id="leftEye4"
   cx="642.79999"
   cy="216.60001"
   r="0.80000001" />
	<circle
   id="leftJaw7"
   cx="639.29999"
   cy="287.89999"
   r="0.80000001" />
	<circle
   id="leftJaw6"
   cx="649.29999"
   cy="281.20001"
   r="0.80000001" />
	<circle
   id="leftJaw5"
   cx="660.90002"
   cy="268.60001"
   r="0.80000001" />
	<circle
   id="leftJaw4"
   cx="667.70001"
   cy="248.60001"
   r="0.80000001" />
	<circle
   id="leftJaw3"
   cx="668.5"
   cy="227"
   r="0.80000001" />
	<circle
   id="leftJaw2"
   cx="668.5"
   cy="217.39999"
   r="0.80000001" />
	<circle
   id="leftJaw1"
   cx="667.70001"
   cy="205.7"
   r="0.80000001" />
	<circle
   id="leftJaw0"
   cx="665.20001"
   cy="196.5"
   r="0.80000001" />
	<circle
   id="rightTop0"
   cx="604.79999"
   cy="172.5"
   r="0.80000001" />
	<circle
   id="rightTop1"
   cx="592.20001"
   cy="182"
   r="0.80000001" />
	<circle
   id="leftShoulder"
   cx="731.79999"
   cy="349.20001"
   r="8.1999998" />
</g></g></svg>
